<?xml version="1.0" standalone="no"?>
<!DOCTYPE svg PUBLIC "-//W3C//DTD SVG 20010904//EN"
 "http://www.w3.org/TR/2001/REC-SVG-20010904/DTD/svg10.dtd">
<svg version="1.0" xmlns="http://www.w3.org/2000/svg"
 width="1024.000000pt" height="1024.000000pt" viewBox="0 0 1024.000000 1024.000000"
 preserveAspectRatio="xMidYMid meet">
<metadata>
Created by potrace 1.16, written by Peter Selinger 2001-2019
</metadata>
<g transform="translate(0.000000,1024.000000) scale(0.100000,-0.100000)"
fill="#000000" stroke="none">
<path d="M5176 7888 l-36 -42 2 -196 3 -195 78 -3 77 -3 0 194 0 194 -36 46
c-20 26 -40 47 -45 47 -4 0 -24 -19 -43 -42z"/>
<path d="M5002 7728 c-116 -88 -211 -97 -385 -36 -76 27 -107 32 -182 32 -77
1 -98 -3 -146 -25 -70 -33 -127 -89 -157 -153 -22 -45 -45 -137 -37 -145 2 -1
19 8 37 22 56 42 96 58 163 64 74 7 134 -6 220 -47 130 -62 167 -72 250 -73
108 0 199 30 260 86 l46 42 -3 140 -3 140 -63 -47z"/>
<path d="M5140 5833 c-1 -802 -3 -1476 -6 -1498 -8 -56 2 -42 90 126 l76 146
0 1341 0 1342 -80 0 -80 0 0 -1457z"/>
<path d="M5591 7261 c20 -11 72 -34 115 -51 378 -150 695 -419 865 -735 130
-240 196 -573 170 -856 -45 -486 -262 -926 -637 -1289 -160 -155 -296 -253
-494 -356 l-95 -50 94 91 c158 153 274 328 366 553 63 154 123 394 130 519 3
54 8 121 10 148 6 72 -12 282 -31 367 -44 201 -127 433 -206 578 -61 112 -187
295 -266 385 -61 70 -238 235 -260 243 -5 1 12 -39 36 -90 110 -231 189 -479
239 -758 13 -73 17 -154 17 -345 0 -225 -3 -267 -27 -420 -74 -457 -184 -767
-387 -1086 -90 -142 -234 -322 -345 -431 -49 -48 -87 -90 -84 -92 4 -5 280 46
320 59 18 6 19 1 19 -77 l0 -83 -237 -59 c-131 -33 -244 -61 -250 -64 -10 -3
-13 45 -13 222 l0 226 50 0 c49 0 49 1 59 38 38 143 122 566 161 812 64 407
80 556 110 1010 30 475 58 1534 40 1545 -20 13 -331 -381 -512 -650 -278 -410
-565 -1002 -798 -1645 -21 -58 -66 -179 -100 -270 -34 -91 -97 -264 -141 -385
-62 -171 -175 -469 -236 -622 -7 -17 48 -17 173 2 111 16 745 101 869 115 44
5 99 12 123 16 l42 6 0 -140 0 -141 -32 -5 c-18 -3 -60 -8 -93 -11 -33 -3
-122 -15 -198 -26 -76 -10 -142 -19 -148 -19 -5 0 -30 -43 -56 -95 l-48 -95
-211 0 c-308 0 -534 27 -704 85 -40 14 -76 22 -79 19 -14 -14 99 -98 193 -144
195 -96 387 -126 735 -117 458 12 767 73 1606 314 264 76 884 271 1029 324 97
35 110 36 36 3 -296 -135 -870 -323 -1585 -520 -109 -30 -201 -56 -202 -58 -2
-1 5 -28 15 -58 l18 -55 -190 -42 c-311 -67 -438 -82 -727 -88 -168 -4 -291
-1 -360 6 -126 15 -311 52 -398 80 -73 24 -71 24 -71 12 0 -18 126 -105 215
-147 205 -99 375 -128 710 -121 320 7 548 43 955 154 330 89 576 149 715 174
201 35 510 33 671 -5 3 0 18 31 33 70 53 135 161 301 311 474 45 52 137 160
203 239 67 79 137 161 155 182 19 22 32 43 30 47 -2 5 -183 -54 -403 -130
-481 -167 -785 -265 -1082 -351 l-223 -64 0 77 0 76 88 23 c193 49 498 146
646 203 371 144 612 303 833 548 206 228 324 448 398 739 152 602 -104 1275
-639 1675 -140 105 -374 226 -567 294 -120 42 -350 99 -434 106 l-70 7 36 -20z
m-692 -541 c-81 -227 -204 -729 -273 -1110 -38 -208 -48 -277 -151 -949 -36
-239 -67 -436 -68 -437 -1 -1 -48 -16 -105 -33 -150 -47 -309 -113 -458 -191
l-131 -69 68 172 c88 221 194 522 303 862 260 807 405 1153 655 1564 73 120
183 283 188 278 1 -2 -12 -41 -28 -87z"/>
<path d="M6605 3261 c-52 -24 -99 -74 -124 -134 -21 -49 -28 -97 -13 -97 4 0
19 8 33 18 80 54 97 62 122 62 58 0 117 -57 117 -115 0 -52 -56 -123 -115
-145 -43 -16 -151 -14 -215 4 -151 43 -291 61 -480 60 -268 0 -335 -13 -1015
-195 -632 -168 -1076 -205 -1483 -123 -68 14 -153 36 -189 49 -36 14 -68 25
-71 25 -13 0 47 -55 98 -90 264 -180 663 -238 1135 -164 120 19 398 80 585
129 608 159 710 179 940 178 168 0 211 -6 429 -60 128 -31 155 -35 246 -31 90
3 109 7 167 36 126 62 208 184 208 310 0 77 -13 119 -58 183 -72 103 -214 148
-317 100z"/>
</g>
</svg>
